# AST/ASF file generated using VICON BodyLanguage
# -----------------------------------------------
:version 1.10
:name VICON
:units
  mass 1.0
  length 0.45
  angle deg
:documentation
   .ast/.asf automatically generated from VICON data using
   VICON BodyBuilder and BodyLanguage model FoxedUp or BRILLIANT.MOD
:root
   order TX TY TZ RX RY RZ
   axis XYZ
   position 0 0 0  
   orientation 0 0 0 
:bonedata
  begin
     id 1 
     name lhipjoint
     direction 0.606768 -0.715223 0.346827 
     length 2.41543 
     axis 0 0 0  XYZ
  end
  begin
     id 2 
     name lfemur
     direction 0.34202 -0.939693 0  
     length 7.2778  
     axis 0 0 20  XYZ
    dof rx ry rz
    limits (-160.0 20.0)
           (-70.0 70.0)
           (-60.0 70.0)
  end
  begin
     id 3 
     name ltibia
     direction 0.34202 -0.939693 0   
     length 7.61811   
     axis 0 0 20   XYZ
    dof rx
    limits (-10.0 170.0)
  end
  begin
     id 4 
     name lfoot
     direction 0.0823924 -0.226371 0.97055   
     length 2.33618   
     axis -90 7.62852e-016 20   XYZ
    dof rx rz
    limits (-45.0 90.0)
           (-70.0 20.0)
  end
  begin
     id 5 
     name ltoes
     direction 1.53554e-011 -4.21934e-011 1   
     length 1.17015   
     axis -90 7.62852e-016 20   XYZ
    dof rx
    limits (-90.0 20.0)
  end
  begin
     id 6 
     name rhipjoint
     direction -0.6077 -0.714582 0.346516   
     length 2.4176  
     axis 0 0 0  XYZ 
  end
  begin
     id 7 
     name rfemur
     direction -0.34202 -0.939693 0   
     length 7.28127   
     axis 0 0 -20   XYZ
    dof rx ry rz
    limits (-160.0 20.0)
           (-70.0 70.0)
           (-70.0 60.0)
  end
  begin
     id 8 
     name rtibia
     direction -0.34202 -0.939693 0   
     length 7.77648   
     axis 0 0 -20   XYZ
    dof rx
    limits (-10.0 170.0)
 end
 begin
     id 9 
     name rfoot
     direction -0.0809463 -0.222398 0.97159   
     length 2.37533  
     axis -90 -7.62852e-016 -20   XYZ
    dof rx rz
    limits (-45.0 90.0)
           (-20.0 70.0)
  end
  begin
     id 10 
     name rtoes
     direction -1.53568e-011 -4.21714e-011 1   
     length 1.18972   
     axis -90 -7.62852e-016 -20   XYZ
    dof rx
    limits (-90.0 20.0)
  end
  begin
     id 11 
     name lowerback
     direction 0.010968 0.991932 -0.126297   
     length 2.21698   
     axis 0 0 0   XYZ
    dof rx ry rz
    limits (-20.0 45.0)
           (-30.0 30.0)
           (-30.0 30.0)
  end
  begin
     id 12 
     name upperback
     direction 0.0167007 0.997503 -0.0686276   
     length 2.22371   
     axis 0 0 0   XYZ
    dof rx ry rz
    limits (-20.0 45.0)
           (-30.0 30.0)
           (-30.0 30.0)
  end
  begin
     id 13 
     name thorax
     direction 0.0111721 0.999885 -0.0102878   
     length 2.25242   
     axis 0 0 0   XYZ
    dof rx ry rz
    limits (-20.0 45.0)
           (-30.0 30.0)
           (-30.0 30.0)
  end
  begin
     id 14 
     name lowerneck
     direction -0.0120265 0.990428 0.137508   
     length 1.57674   
     axis 0 0 0   XYZ
    dof rx ry rz
    limits (-20.0 45.0)
           (-30.0 30.0)
           (-30.0 30.0)
  end
  begin
     id 15 
     name upperneck
     direction 0.0175669 0.998907 0.0433089   
     length 1.5618   
     axis 0 0 0   XYZ
    dof rx ry rz
    limits (-20.0 45.0)
           (-30.0 30.0)
           (-30.0 30.0)
  end
  begin
     id 16
     name head
     direction 0.00754609 0.99997 0.00185367  
     length 1.60579  
     axis 0 0 0   XYZ
    dof rx ry rz
    limits (-20.0 45.0)
           (-30.0 30.0)
           (-30.0 30.0)
  end
  begin
     id 17 
     name lclavicle
     direction 0.885866 0.429166 -0.176231  
     length 3.44967  
     axis 0 0 0   XYZ
    dof ry rz
    limits (-20.0 10.0)
           (0.0 20.0)
  end
  begin
     id 18 
     name lhumerus
     direction 1 -4.48973e-011 -1.90255e-027   
     length 5.20607   
     axis 180 -30 -90   XYZ
    dof rx ry rz
    limits (-60.0 90.0)
           (-90.0 90.0)
           (-90.0 90.0)
  end
  begin
     id 19
     name lradius
     direction 1 -4.48956e-011 9.87925e-027   
     length 3.39961   
     axis 180 -30 -90   XYZ
    dof rx
    limits (-10.0 170.0)
  end
  begin
     id 20
     name lwrist
     direction 1 -4.48985e-011 1.73247e-026   
     length 1.6998   
     axis -9.60847e-015 90 90   XYZ
    dof ry
    limits (-180.0 0.0)
 end
  begin
     id 21 
     name lhand
     direction 1 -4.48798e-011 3.46119e-026   
     length 0.519693   
     axis -2.21073e-014 90 90   XYZ
    dof rx rz
    limits (-90.0 90.0)
           (-45.0 45.0)
  end
  begin
     id 22 
     name lfingers
     direction 1 -4.48938e-011 6.92797e-026   
     length 0.41899   
     axis -4.42155e-014 90 90   XYZ
    dof rx
    limits (0.0 90.0)
  end
  begin
     id 23
     name lthumb
     direction 0.707107 -6.34952e-011 0.707107   
     length 0.601588   
     axis -90 45 6.0103e-014   XYZ
    dof rx rz
    limits (-45.0 45.0)
           (-45.0 45.0)
  end
  begin
     id 24 
     name rclavicle
     direction -0.866736 0.456792 -0.200276   
     length 3.45032  
     axis 0 0 0   XYZ 
    dof ry rz
    limits (-10.0 20.0)
           (-20.0 0.0)
  end
  begin
     id 25 
     name rhumerus
     direction -1 -4.4897e-011 8.65094e-028  
     length 5.32214   
     axis 180 30 90   XYZ
    dof rx ry rz
    limits (-90.0 60.0)
           (-90.0 90.0)
           (-90.0 90.0)
  end
  begin
     id 26 
     name rradius
     direction -1 -4.48987e-011 1.08427e-026   
     length 3.51208   
     axis 180 30 90   XYZ
    dof rx
    limits (-10.0 170.0)
  end
  begin
     id 27 
     name rwrist
     direction -1 -4.48961e-011 1.73222e-026   
     length 1.75604   
     axis -9.60847e-015 -90 -90   XYZ
    dof ry
    limits (-180.0 0.0)
  end
  begin
     id 28
     name rhand
     direction -1 -4.48895e-011 3.46314e-026   
     length 0.586681   
     axis -2.21073e-014 -90 -90   XYZ
    dof rx rz
    limits (-90.0 90.0)
           (-45.0 45.0)
  end
  begin
     id 29
     name rfingers
     direction -1 -4.48968e-011 6.92916e-026   
     length 0.472997   
     axis -4.42155e-014 -90 -90   XYZ
    dof rx
    limits (0.0 90.0)
  end
  begin
     id 30
     name rthumb
     direction -0.707107 -6.34848e-011 0.707107   
     length 0.679133   
     axis -90 -45 -6.0103e-014   XYZ
    dof rx rz
    limits (-45.0 45.0)
           (-45.0 45.0)
  end
:hierarchy
  begin
    root lhipjoint rhipjoint lowerback
    lhipjoint lfemur
    lfemur ltibia
    ltibia lfoot
    lfoot ltoes
    rhipjoint rfemur
    rfemur rtibia
    rtibia rfoot
    rfoot rtoes
    lowerback upperback
    upperback thorax
    thorax lowerneck lclavicle rclavicle
    lowerneck upperneck
    upperneck head
    lclavicle lhumerus
    lhumerus lradius
    lradius lwrist
    lwrist lhand lthumb
    lhand lfingers
    rclavicle rhumerus
    rhumerus rradius
    rradius rwrist
    rwrist rhand rthumb
    rhand rfingers
  end

#!OML:ASF H:\Dans Jumps\Project 1\Capture day 1\Session 1\subject.ASF
:FULLY-SPECIFIED
:DEGREES
45
root 0.401052 17.6106 -13.9087 7.09608 -2.20556 -1.18596
lowerback 0.509071 -0.296824 -0.241171
upperback 5.39848 -0.456086 1.41848
thorax 5.30612 -0.27644 1.58511
lowerneck -11.5072 0.969882 -1.23252
upperneck 36.094 2.02096 -0.777715
head 14.2806 0.58723 0.205841
rclavicle -3.27995e-015 3.37934e-015
rhumerus -26.514 -12.6007 -81.1097
rradius 27.4386
rwrist 26.6954
rhand -18.58 -24.9397
rfingers 7.12502
rthumb 7.71052 -54.7791
lclavicle -3.27995e-015 3.37934e-015
lhumerus -24.0312 -6.49718 90.3752
lradius 24.0193
lwrist 13.0902
lhand -26.7737 -3.61577
lfingers 7.12502
lthumb -0.201563 26.3639
rfemur -15.0565 -1.84253 18.9902
rtibia 22.9438
rfoot -13.655 -2.71989
rtoes 8.58985
lfemur -12.7907 6.998 -19.3812
ltibia 19.2819
lfoot -11.3265 5.78427
ltoes 3.3764
46
root 0.400597 17.6107 -13.9103 7.09986 -2.20277 -1.18142
lowerback 0.519949 -0.297887 -0.246494
upperback 5.39869 -0.45741 1.42067
thorax 5.30025 -0.277377 1.59034
lowerneck -11.513 0.970698 -1.22885
upperneck 36.0901 2.02208 -0.78017
head 14.2802 0.587905 0.204397
rclavicle 7.00716e-015 -7.7526e-015
rhumerus -26.509 -12.5891 -81.1039
rradius 27.4379
rwrist 26.6908
rhand -18.5843 -24.9347
rfingers 7.12502
rthumb 7.70641 -54.7743
lclavicle 7.00716e-015 -7.7526e-015
lhumerus -24.0359 -6.5161 90.378
lradius 24.0266
lwrist 13.1034
lhand -26.7858 -3.63045
lfingers 7.12502
lthumb -0.213245 26.3492
rfemur -15.0672 -1.84198 18.9871
rtibia 22.9457
rfoot -13.6493 -2.72215
rtoes 8.59575
lfemur -12.7986 6.99689 -19.3852
ltibia 19.2763
lfoot -11.3181 5.77904
ltoes 3.38216
47
root 0.400138 17.6109 -13.9118 7.10224 -2.20043 -1.17625
lowerback 0.532716 -0.298644 -0.253005
upperback 5.39902 -0.458288 1.4229
thorax 5.29342 -0.278145 1.59632
lowerneck -11.5153 0.971518 -1.2251
upperneck 36.0846 2.02354 -0.783923
head 14.2782 0.588613 0.202436
rclavicle 4.72114e-015 -8.34896e-015
rhumerus -26.5064 -12.5763 -81.0974
rradius 27.4381
rwrist 26.6876
rhand -18.5902 -24.9273
rfingers 7.12502
rthumb 7.70067 -54.7671
lclavicle 4.72114e-015 -8.34896e-015
lhumerus -24.0406 -6.53609 90.3816
lradius 24.0353
lwrist 13.1166
lhand -26.7932 -3.63315
lfingers 7.12502
lthumb -0.22035 26.3465
rfemur -15.0766 -1.84239 18.9833
rtibia 22.9488
rfoot -13.6452 -2.72266
rtoes 8.59722
lfemur -12.8036 6.99635 -19.3899
ltibia 19.2685
lfoot -11.3095 5.77449
ltoes 3.38913
48
root 0.399659 17.6111 -13.9134 7.10373 -2.19768 -1.17108
lowerback 0.547222 -0.30009 -0.260987
upperback 5.39959 -0.460094 1.42619
thorax 5.2859 -0.279468 1.60419
lowerneck -11.5173 0.972489 -1.22342
upperneck 36.0802 2.02579 -0.787692
head 14.2767 0.58936 0.200951
rclavicle 4.82053e-015 1.68967e-014
rhumerus -26.5025 -12.5598 -81.0906
rradius 27.4363
rwrist 26.6897
rhand -18.5957 -24.9195
rfingers 7.12502
rthumb 7.69544 -54.7595
lclavicle 4.82053e-015 1.68967e-014
lhumerus -24.0431 -6.55284 90.3854
lradius 24.0432
lwrist 13.1293
lhand -26.7919 -3.62095
lfingers 7.12502
lthumb -0.219089 26.3587
rfemur -15.0854 -1.84327 18.9797
rtibia 22.9524
rfoot -13.6406 -2.7243
rtoes 8.58467
lfemur -12.8075 6.99668 -19.3943
ltibia 19.2603
lfoot -11.3003 5.76923
ltoes 3.39132
49
root 0.399183 17.6113 -13.915 7.10555 -2.19586 -1.16746
lowerback 0.562061 -0.300428 -0.268048
upperback 5.40017 -0.460476 1.43023
thorax 5.27817 -0.28006 1.61237
lowerneck -11.5201 0.971511 -1.22554
upperneck 36.077 2.02464 -0.787038
head 14.2758 0.588712 0.20144
rclavicle -7.35503e-015 -3.37934e-015
rhumerus -26.4974 -12.5457 -81.0826
rradius 27.4315
rwrist 26.697
rhand -18.5993 -24.91
rfingers 7.12502
rthumb 7.69195 -54.7501
lclavicle -7.35503e-015 -3.37934e-015
lhumerus -24.0431 -6.56593 90.3892
lradius 24.0496
lwrist 13.1347
lhand -26.7833 -3.60093
lfingers 7.12502
lthumb -0.210751 26.3787
rfemur -15.0951 -1.84476 18.9778
rtibia 22.9567
rfoot -13.6359 -2.72464
rtoes 8.56989
lfemur -12.8124 7.00016 -19.3974
ltibia 19.2529
lfoot -11.2915 5.76216
ltoes 3.39024
50
root 0.398726 17.6114 -13.9166 7.1082 -2.19228 -1.16509
lowerback 0.577609 -0.301278 -0.273601
upperback 5.39978 -0.461585 1.4348
thorax 5.26902 -0.280946 1.62023
lowerneck -11.5183 0.969236 -1.234
upperneck 36.0715 2.02068 -0.779603
head 14.2727 0.586953 0.20535
rclavicle -1.37658e-014 1.37161e-014
rhumerus -26.4909 -12.5351 -81.0736
rradius 27.4224
rwrist 26.711
rhand -18.6018 -24.8995
rfingers 7.12502
rthumb 7.68947 -54.7397
lclavicle -1.37658e-014 1.37161e-014
lhumerus -24.0431 -6.57864 90.393
lradius 24.0544
lwrist 13.1384
lhand -26.7702 -3.58453
lfingers 7.12502
lthumb -0.198148 26.3951
rfemur -15.1058 -1.84711 18.9773
rtibia 22.9612
rfoot -13.6318 -2.72546
rtoes 8.55811
lfemur -12.82 7.00385 -19.3992
ltibia 19.2484
lfoot -11.2831 5.75317
ltoes 3.38898
